<?xml version="1.0" encoding="utf-8"?>
<!-- Generator: Adobe Illustrator 27.5.0, SVG Export Plug-In . SVG Version: 6.00 Build 0)  -->
<svg version="1.1" xmlns="http://www.w3.org/2000/svg" xmlns:xlink="http://www.w3.org/1999/xlink" x="0px" y="0px"
	 viewBox="0 0 3710 3710" style="enable-background:new 0 0 3710 3710;" xml:space="preserve">
<g id="Background">
	<g>
		<g>
			<rect style="fill:#FFFFFF;" width="3710" height="3710"/>
		</g>
	</g>
</g>
<g id="Illustration">
	<g>
		<linearGradient id="SVGID_1_" gradientUnits="userSpaceOnUse" x1="3407.719" y1="3609.2959" x2="1354.4434" y2="1393.0619">
			<stop  offset="0" style="stop-color:#DAE3FE"/>
			<stop  offset="1" style="stop-color:#E9EFFD"/>
		</linearGradient>
		<path style="fill:url(#SVGID_1_);" d="M3124.841,2345.164c-282.874,657.963-1029.569,940.574-1614.615,892.388
			c-159.742-13.156-481.145-39.628-732.1-275.792c-481.941-453.537-407.718-1401.556,53.638-1959.697
			c59.413-71.877,470.662-553.445,1111.516-547c469.199,4.72,798.525,268.473,838.569,301.331
			c50.587,41.509,162.163,140.148,262.719,296.633C3280.839,1420.713,3301.608,1934.002,3124.841,2345.164z"/>
		<path style="fill:#BDD0FB;" d="M459.296,2547.115c270.577,886.87,2406.25,958.508,2791.607,112.316
			c26.408-57.988-20.244-121.731-90.019-123.019l-2649.606-48.914C476.153,2486.85,450.016,2516.699,459.296,2547.115z"/>
		<g>
			<path style="fill:#BDD0FB;" d="M2304.033,2535.782c0,0,95.067-1269.118,608.089-2031.235
				c34.487-51.231,114.511-45.601,140.974,10.101C3230.045,887.112,3642.987,2035.614,2304.033,2535.782z"/>
			<path style="opacity:0.5;fill:#FFFFFF;" d="M2417.723,2437.682c-2.619,3.391,2.284,7.384,5.355,4.363
				c113.24-111.368,534.763-638.187,566.345-1565.802c0.101-2.979-4.516-3.411-4.885-0.451
				C2957.315,1093.824,2831.873,1901.578,2417.723,2437.682z"/>
		</g>
		<g>
			<g>
				<g>
					<path style="fill:#BDD0FB;" d="M865.965,1251.73c23.065-48.052,39.563-98.354,43.411-153.123
						c9.696-137.999-70.525-265.081-129.459-383.896c-54.165-109.201-94.423-271.92,88.343-257.439
						c145.607,11.536,316.788,156.645,336.32,307.957c23.112,179.085-64.072,404.918,39.295,567.593
						c144.604,227.575,248.91,175.422,248.91,559.456c0,164.094-90.893,254.609-195.002,304.465
						c-164.322,78.691-360.26,46.894-491.184-79.809c-115.664-111.935-184.436-272.848-161.176-434.399
						C668.916,1519.371,796.889,1395.636,865.965,1251.73z"/>
					<path style="fill:#7D97F4;" d="M988.134,2486.448c2.283,0,4.36-1.544,4.941-3.859
						c90.582-361.568,139.89-689.327,146.553-974.173c5.334-228.089-16.508-429.378-64.92-598.273
						C992.021,621.671,862.331,529.023,856.85,525.221c-2.309-1.599-5.483-1.029-7.088,1.279c-1.606,2.309-1.035,5.485,1.273,7.093
						c1.319,0.919,132.721,95.101,214.261,380.709c75.363,263.975,122.295,749.909-82.109,1565.808
						c-0.684,2.731,0.976,5.5,3.705,6.183C987.308,2486.398,987.724,2486.448,988.134,2486.448z"/>
				</g>
				<path style="fill:#BDD0FB;" d="M720.877,846.88c7.041-1.91,14.775-2.506,23.011-1.559c45.549,5.238,64.255,53.273,77.637,90.83
					c11.461,32.162,24.966,71.201,18.198,106.045c-7.318,37.672-47.324,68.401-76.353,30.153
					c-32.997-43.476-82.51-110.228-82.81-167.841C680.411,875.87,696.49,853.494,720.877,846.88z"/>
			</g>
			<g>
				<path style="fill:#91B3FA;" d="M466.012,2126.039c-20.025-131.923,27.922-283.378,51.853-422.885
					c12.653-73.761,18.505-146.962,6.658-221.274c-11.779-73.885-46.495-153.794-14.485-227.405
					c64.499-148.299,217.827-80.81,305.656,30.832c101.92,129.555,129.782,341.256,168.493,504.273
					c23.337,98.274,58.492,199.075,70.802,299.22c20.393,165.898-17.117,281.074-96.477,358.858
					c-76.117,74.606-192.044,90.076-285.16,38.219C589.235,2439.03,498.317,2338.858,466.012,2126.039z"/>
				<path style="fill:#7D97F4;" d="M816.785,2738.124c-0.28,0-0.562-0.023-0.846-0.071c-2.755-0.463-4.613-3.073-4.148-5.828
					c0.334-1.993,33.548-202.494,34.404-479.337c0.787-255.346-26.578-629.718-161.423-963.138c-1.047-2.591,0.203-5.54,2.793-6.588
					c2.587-1.044,5.539,0.204,6.588,2.793c135.486,335.006,162.965,710.855,162.159,967.161
					c-0.873,277.626-34.206,478.789-34.544,480.788C821.352,2736.375,819.209,2738.124,816.785,2738.124z"/>
			</g>
		</g>
		<g>
			<g>
				<path style="fill:#7D97F4;" d="M3061.205,2865.98h-517.118V1829.215h537.582v1016.301
					C3081.669,2856.818,3072.507,2865.98,3061.205,2865.98z"/>
				<g style="opacity:0.89;">
					<path style="opacity:0.67;fill:#FFFFFF;" d="M2966.95,2584.39h-304.944c-0.62,0-1.123-0.503-1.123-1.123v-471.338
						c0-0.62,0.503-1.123,1.123-1.123h304.944c0.62,0,1.123,0.503,1.123,1.123v471.338
						C2968.073,2583.887,2967.57,2584.39,2966.95,2584.39z"/>
					<g>
						<path style="fill:#7D97F4;" d="M2945.05,2558.791h-118.021c-0.345,0-0.624-0.28-0.624-0.624v-421.138
							c0-0.345,0.28-0.624,0.624-0.624h118.021c0.345,0,0.624,0.28,0.624,0.624v421.138
							C2945.674,2558.511,2945.395,2558.791,2945.05,2558.791z"/>
						<path style="fill:#7D97F4;" d="M2801.927,2558.791h-118.021c-0.345,0-0.624-0.28-0.624-0.624v-421.138
							c0-0.345,0.279-0.624,0.624-0.624h118.021c0.345,0,0.624,0.28,0.624,0.624v421.138
							C2802.551,2558.511,2802.272,2558.791,2801.927,2558.791z"/>
					</g>
				</g>
				
					<linearGradient id="SVGID_00000049188600883834969400000005128227400798189981_" gradientUnits="userSpaceOnUse" x1="3661.7073" y1="-197.9188" x2="3298.5112" y2="635.2941">
					<stop  offset="0" style="stop-color:#4F52FF"/>
					<stop  offset="1" style="stop-color:#4042E2"/>
				</linearGradient>
				<path style="fill:url(#SVGID_00000049188600883834969400000005128227400798189981_);" d="M3182.884,1911.077h-664.32
					l-27.105-478.194l549.188-10.421l168.407,447.631C3217.92,1889.213,3203.959,1911.077,3182.884,1911.077z"/>
				
					<linearGradient id="SVGID_00000173149710765098461150000014815317620509423532_" gradientUnits="userSpaceOnUse" x1="2785.6677" y1="1385.9613" x2="2952.6157" y2="434.8619">
					<stop  offset="0" style="stop-color:#4F52FF"/>
					<stop  offset="1" style="stop-color:#4042E2"/>
				</linearGradient>
				<path style="fill:url(#SVGID_00000173149710765098461150000014815317620509423532_);" d="M3042.899,1444.453l-527.894-5.901
					l3.313-53.444l493.399,3.763c19.051,1.181,33.595,16.646,32.486,34.543L3042.899,1444.453z"/>
			</g>
			<g>
				<path style="fill:#7D97F4;" d="M679.027,2862.382h515.269V1825.616H656.714v1014.453
					C656.714,2852.392,666.704,2862.382,679.027,2862.382z"/>
				<g style="opacity:0.89;">
					<path style="opacity:0.67;fill:#FFFFFF;" d="M771.433,2580.791h304.944c0.62,0,1.123-0.503,1.123-1.123V2108.33
						c0-0.62-0.503-1.123-1.123-1.123H771.433c-0.62,0-1.123,0.503-1.123,1.123v471.338
						C770.31,2580.288,770.813,2580.791,771.433,2580.791z"/>
					<g>
						<path style="fill:#7D97F4;" d="M793.333,2555.192h118.021c0.345,0,0.624-0.279,0.624-0.624V2133.43
							c0-0.345-0.279-0.624-0.624-0.624H793.333c-0.345,0-0.624,0.279-0.624,0.624v421.138
							C792.709,2554.913,792.988,2555.192,793.333,2555.192z"/>
						<path style="fill:#7D97F4;" d="M936.456,2555.192h118.021c0.345,0,0.624-0.279,0.624-0.624V2133.43
							c0-0.345-0.28-0.624-0.624-0.624H936.456c-0.345,0-0.624,0.279-0.624,0.624v421.138
							C935.832,2554.913,936.111,2555.192,936.456,2555.192z"/>
					</g>
				</g>
				
					<linearGradient id="SVGID_00000049910825920020214750000007597680903270227091_" gradientUnits="userSpaceOnUse" x1="1837.0234" y1="-40.0912" x2="1131.995" y2="1327.2345">
					<stop  offset="0" style="stop-color:#4F52FF"/>
					<stop  offset="1" style="stop-color:#4042E2"/>
				</linearGradient>
				<path style="fill:url(#SVGID_00000049910825920020214750000007597680903270227091_);" d="M555.499,1907.479h664.319
					l27.105-478.194l-549.188-10.421l-168.407,447.631C520.463,1885.614,534.424,1907.479,555.499,1907.479z"/>
				
					<linearGradient id="SVGID_00000163045642289975334350000006813765313978722472_" gradientUnits="userSpaceOnUse" x1="1020.0189" y1="1076.0337" x2="1186.9672" y2="124.9336">
					<stop  offset="0" style="stop-color:#4F52FF"/>
					<stop  offset="1" style="stop-color:#4042E2"/>
				</linearGradient>
				<path style="fill:url(#SVGID_00000163045642289975334350000006813765313978722472_);" d="M695.484,1440.854l527.893-5.901
					l-3.313-53.445l-493.399,3.763c-19.051,1.181-33.595,16.646-32.485,34.543L695.484,1440.854z"/>
			</g>
			<g>
				<path style="fill:#91B3FA;" d="M1119.997,1762.859v1060.959c0,46.57,37.752,84.322,84.322,84.322h1382.446
					c14.893,0,26.966-12.073,26.966-26.966V1762.859H1119.997z"/>
				<path style="fill:#7D97F4;" d="M2008.483,2833.633h-304.839v-591.129c0-1.966,1.594-3.56,3.56-3.56h297.719
					c1.966,0,3.56,1.594,3.56,3.56V2833.633z"/>
				
					<linearGradient id="SVGID_00000116931694325997920450000009934172889271835533_" gradientUnits="userSpaceOnUse" x1="1715.1379" y1="2536.2886" x2="1996.9886" y2="2536.2886">
					<stop  offset="0" style="stop-color:#4F52FF"/>
					<stop  offset="1" style="stop-color:#4042E2"/>
				</linearGradient>
				<path style="fill:url(#SVGID_00000116931694325997920450000009934172889271835533_);" d="M1996.989,2811.21h-281.851v-546.283
					c0-1.966,1.594-3.56,3.56-3.56h274.731c1.966,0,3.56,1.594,3.56,3.56V2811.21z"/>
				<path style="fill:#BDD0FB;" d="M1986.958,2198.917h-261.79c-11.887,0-21.524-9.636-21.524-21.524v-18.801
					c0-11.309,8.751-20.689,20.033-21.473l261.79-18.185c12.445-0.865,23.016,8.998,23.016,21.473v36.986
					C2008.483,2189.28,1998.846,2198.917,1986.958,2198.917z"/>
				<path style="fill:#BDD0FB;" d="M2006.43,2870.466h-297.142c-13.492,0-24.431-10.938-24.431-24.431v-21.339
					c0-12.836,9.776-48.34,22.581-49.229l297.298,4.216c14.126-0.981,26.124,10.213,26.124,24.372v41.98
					C2030.86,2859.529,2019.922,2870.466,2006.43,2870.466z"/>
				<path style="fill:#7D97F4;" d="M2007.224,2916.937h-297.142c-13.493,0-24.431-10.938-24.431-24.431v-21.339
					c0-12.836,2.808-36.644,15.613-37.534l304.266-7.479c14.126-0.981,26.124,10.213,26.124,24.372v41.98
					C2031.655,2905.999,2020.716,2916.937,2007.224,2916.937z"/>
				<g>
					<path style="fill:#FFFFFF;" d="M2534.392,2779.044h-428.64c-1.735,0-3.142-1.407-3.142-3.142v-689.758
						c0-1.736,1.407-3.142,3.142-3.142h428.64c1.735,0,3.142,1.407,3.142,3.142v689.758
						C2537.534,2777.638,2536.127,2779.044,2534.392,2779.044z"/>
					<path style="fill:#7D97F4;" d="M2509.607,2753.343h-379.964c-1.621,0-2.934-1.314-2.934-2.934v-635.265
						c0-1.621,1.314-2.934,2.934-2.934h379.964c1.621,0,2.934,1.314,2.934,2.934v635.265
						C2512.541,2752.029,2511.227,2753.343,2509.607,2753.343z"/>
					<rect x="2300.627" y="2103.398" style="fill:#FFFFFF;" width="22.122" height="675.647"/>
				</g>
				<g>
					<path style="fill:#FFFFFF;" d="M1626.078,2779.044h-428.64c-1.735,0-3.142-1.407-3.142-3.142v-689.758
						c0-1.736,1.407-3.142,3.142-3.142h428.64c1.735,0,3.142,1.407,3.142,3.142v689.758
						C1629.22,2777.638,1627.813,2779.044,1626.078,2779.044z"/>
					<path style="fill:#7D97F4;" d="M1601.293,2753.343h-379.964c-1.62,0-2.934-1.314-2.934-2.934v-635.265
						c0-1.621,1.314-2.934,2.934-2.934h379.964c1.62,0,2.934,1.314,2.934,2.934v635.265
						C1604.227,2752.029,1602.913,2753.343,1601.293,2753.343z"/>
					<rect x="1392.313" y="2103.398" style="fill:#FFFFFF;" width="22.122" height="675.647"/>
				</g>
				<g>
					<polygon style="fill:#91B3FA;" points="2631.189,1122.268 2618.498,1112.677 2618.498,1099.332 2600.844,1099.332 
						1866.864,544.584 1124.765,1099.332 1124.765,1762.859 2618.498,1762.859 2618.498,1190.689 					"/>
					<g>
						<rect x="2194.528" y="609.105" style="fill:#7D97F4;" width="123.554" height="201.173"/>
						
							<linearGradient id="SVGID_00000098943832663992593610000014143870894241101496_" gradientUnits="userSpaceOnUse" x1="2704.761" y1="-647.2346" x2="2486.5374" y2="-30.1893">
							<stop  offset="0" style="stop-color:#4F52FF"/>
							<stop  offset="1" style="stop-color:#4042E2"/>
						</linearGradient>
						<path style="fill:url(#SVGID_00000098943832663992593610000014143870894241101496_);" d="M2358.801,641.702h-199.705v-55.681
							c0-3.366,2.729-6.095,6.096-6.095h184.331c5.124,0,9.278,4.154,9.278,9.278V641.702z"/>
						
							<linearGradient id="SVGID_00000017494706141315467760000006714041008840678814_" gradientUnits="userSpaceOnUse" x1="2069.771" y1="-565.892" x2="1941.5847" y2="523.6974">
							<stop  offset="0" style="stop-color:#4F52FF"/>
							<stop  offset="1" style="stop-color:#4042E2"/>
						</linearGradient>
						<path style="fill:url(#SVGID_00000017494706141315467760000006714041008840678814_);" d="M1074.821,1204.984l792.658-607.894
							l752.414,583.624c27.348,21.213,67.462,6.356,74.395-27.553l10.554-51.62l-837.363-637.879l-810.53,619.09
							c-14.512,11.085-19.778,30.53-12.843,47.424L1074.821,1204.984z"/>
					</g>
					<g style="opacity:0.89;">
						<path style="fill:#FFFFFF;" d="M1708.561,1664.535h304.944c0.62,0,1.123-0.503,1.123-1.123v-471.338
							c0-0.62-0.503-1.123-1.123-1.123h-304.944c-0.62,0-1.123,0.503-1.123,1.123v471.338
							C1707.438,1664.032,1707.941,1664.535,1708.561,1664.535z"/>
						<g>
							<path style="fill:#7D97F4;" d="M1730.461,1638.936h118.021c0.345,0,0.624-0.279,0.624-0.624v-421.138
								c0-0.345-0.279-0.624-0.624-0.624h-118.021c-0.345,0-0.624,0.279-0.624,0.624v421.138
								C1729.837,1638.657,1730.116,1638.936,1730.461,1638.936z"/>
							<path style="fill:#7D97F4;" d="M1873.584,1638.936h118.021c0.345,0,0.624-0.279,0.624-0.624v-421.138
								c0-0.345-0.28-0.624-0.624-0.624h-118.021c-0.345,0-0.624,0.279-0.624,0.624v421.138
								C1872.96,1638.657,1873.239,1638.936,1873.584,1638.936z"/>
						</g>
					</g>
					<g style="opacity:0.89;">
						<path style="fill:#FFFFFF;" d="M1277.458,1667.888h304.944c0.62,0,1.123-0.503,1.123-1.123v-471.338
							c0-0.62-0.503-1.123-1.123-1.123h-304.944c-0.62,0-1.123,0.503-1.123,1.123v471.338
							C1276.335,1667.385,1276.838,1667.888,1277.458,1667.888z"/>
						<g>
							<path style="fill:#7D97F4;" d="M1299.358,1642.289h118.021c0.345,0,0.624-0.28,0.624-0.624v-421.138
								c0-0.345-0.28-0.624-0.624-0.624h-118.021c-0.345,0-0.624,0.279-0.624,0.624v421.138
								C1298.734,1642.009,1299.013,1642.289,1299.358,1642.289z"/>
							<path style="fill:#7D97F4;" d="M1442.481,1642.289h118.02c0.345,0,0.624-0.28,0.624-0.624v-421.138
								c0-0.345-0.28-0.624-0.624-0.624h-118.02c-0.345,0-0.624,0.279-0.624,0.624v421.138
								C1441.857,1642.009,1442.136,1642.289,1442.481,1642.289z"/>
						</g>
					</g>
					<g style="opacity:0.89;">
						<path style="fill:#FFFFFF;" d="M2120.98,1672.168h304.944c0.62,0,1.123-0.503,1.123-1.123v-471.338
							c0-0.62-0.503-1.123-1.123-1.123H2120.98c-0.62,0-1.123,0.503-1.123,1.123v471.338
							C2119.857,1671.666,2120.36,1672.168,2120.98,1672.168z"/>
						<g>
							<path style="fill:#7D97F4;" d="M2142.88,1646.569H2260.9c0.345,0,0.624-0.279,0.624-0.624v-421.138
								c0-0.345-0.279-0.624-0.624-0.624H2142.88c-0.345,0-0.624,0.279-0.624,0.624v421.138
								C2142.256,1646.29,2142.535,1646.569,2142.88,1646.569z"/>
							<path style="fill:#7D97F4;" d="M2286.002,1646.569h118.021c0.345,0,0.624-0.279,0.624-0.624v-421.138
								c0-0.345-0.28-0.624-0.624-0.624h-118.021c-0.345,0-0.624,0.279-0.624,0.624v421.138
								C2285.378,1646.29,2285.658,1646.569,2286.002,1646.569z"/>
						</g>
					</g>
				</g>
				<path style="fill:#7D97F4;" d="M2648.316,1834.787H1085.412c-4.37,0-7.912-3.542-7.912-7.912v-69.724
					c0-4.37,3.542-7.912,7.912-7.912h1562.904c4.37,0,7.912,3.542,7.912,7.912v69.724
					C2656.228,1831.245,2652.686,1834.787,2648.316,1834.787z"/>
			</g>
		</g>
		<g>
			<g>
				<g>
					
						<linearGradient id="SVGID_00000000903775015953565030000015603474445049369523_" gradientUnits="userSpaceOnUse" x1="-5825.3291" y1="3192.4739" x2="-5710.6616" y2="3192.4739" gradientTransform="matrix(-1 0 0 1 -3077.9644 0)">
						<stop  offset="0" style="stop-color:#09005D"/>
						<stop  offset="1" style="stop-color:#1A0F91"/>
					</linearGradient>
					<path style="fill:url(#SVGID_00000000903775015953565030000015603474445049369523_);" d="M2632.699,3233.302
						c-0.013-0.854,0.044-1.719,0.263-2.59c12.915-51.203,77.016-83.094,77.016-83.094l25.401,1.991
						c14.604,45.129,12.727,72.807,10.382,85.135c-0.065,0.346-0.17,0.675-0.262,1.008
						C2724.546,3237.626,2681.418,3238.848,2632.699,3233.302z"/>
					<path style="fill:#7D97F4;" d="M2745.499,3235.753c-1.132,4.117-4.171,7.323-8.06,8.14c-29.806,6.268-77.18,1.224-97.071-1.376
						c-4.388-0.573-7.596-4.632-7.669-9.214C2681.418,3238.848,2724.546,3237.626,2745.499,3235.753z"/>
					
						<linearGradient id="SVGID_00000142148441200514965520000013126220541651642771_" gradientUnits="userSpaceOnUse" x1="-5793.4414" y1="3061.9299" x2="-5815.3447" y2="3253.0881" gradientTransform="matrix(-1 0 0 1 -3077.9644 0)">
						<stop  offset="0" style="stop-color:#A22B25"/>
						<stop  offset="1" style="stop-color:#C0423C"/>
					</linearGradient>
					<path style="fill:url(#SVGID_00000142148441200514965520000013126220541651642771_);" d="M2745.592,3111.777l-10.758,51.789
						c-0.788,3.795-3.704,6.637-7.236,6.968c-4.323,0.406-10.477,0.644-16.667-0.265c-5.55-0.815-9.415-6.455-8.431-12.507
						l7.478-45.984H2745.592z"/>
					<path style="fill:#7D97F4;" d="M2522.692,3235.098c28.053-0.785,42.563-4.089,50.064-7.155
						c0.018,2.789,0.002,5.627-0.089,8.569c-0.096,3.141-2.423,5.651-5.285,5.632l-154.03-0.995
						c-4.916-0.032-7.788-5.732-5.658-10.24C2427.89,3232.578,2479.327,3236.311,2522.692,3235.098z"/>
					
						<linearGradient id="SVGID_00000156556641688322145550000003342734824603043457_" gradientUnits="userSpaceOnUse" x1="-5650.7212" y1="3195.3882" x2="-5485.6587" y2="3195.3882" gradientTransform="matrix(-1 0 0 1 -3077.9644 0)">
						<stop  offset="0" style="stop-color:#09005D"/>
						<stop  offset="1" style="stop-color:#1A0F91"/>
					</linearGradient>
					<path style="fill:url(#SVGID_00000156556641688322145550000003342734824603043457_);" d="M2407.695,3230.909
						c0.186-0.392,0.345-0.792,0.61-1.161c13.603-19.007,48.249-56.855,116.71-73.271l32.842-1.036c0,0,14.625,25.418,14.9,72.502
						c-7.501,3.066-22.011,6.37-50.064,7.155C2479.327,3236.311,2427.89,3232.578,2407.695,3230.909z"/>
					
						<linearGradient id="SVGID_00000107561620501894856310000001822590489738076062_" gradientUnits="userSpaceOnUse" x1="-5500.4209" y1="2675.7295" x2="-5522.3247" y2="2866.8906" gradientTransform="matrix(-0.998 -0.0629 -0.0629 0.998 -2781.0708 65.7657)">
						<stop  offset="0" style="stop-color:#A22B25"/>
						<stop  offset="1" style="stop-color:#C0423C"/>
					</linearGradient>
					<path style="fill:url(#SVGID_00000107561620501894856310000001822590489738076062_);" d="M2565.409,3107.194
						c-0.518,2.42-7.352,39.271-9.999,53.559c-0.629,3.395-3.274,5.886-6.422,6.062c-5.623,0.315-14.693,0.353-22.493-1.765
						c-4.208-1.143-7.035-5.433-6.735-10.193l3.675-58.289L2565.409,3107.194z"/>
					
						<linearGradient id="SVGID_00000061437908767540648410000013517132745635421096_" gradientUnits="userSpaceOnUse" x1="3066.6973" y1="3242.2668" x2="3293.4146" y2="2161.2087" gradientTransform="matrix(1 0 0 1 -496.4048 0)">
						<stop  offset="0" style="stop-color:#09005D"/>
						<stop  offset="1" style="stop-color:#1A0F91"/>
					</linearGradient>
					<path style="fill:url(#SVGID_00000061437908767540648410000013517132745635421096_);" d="M2590.296,2426.791
						c0,0-45.179,310.446-77.782,679.873c-0.608,6.881,4.875,12.868,11.634,14.291c9.96,2.098,24.601,4.588,36.721,4.249
						c6.47-0.181,11.879-4.979,12.967-11.36c11.107-65.135,90.363-414.712,111.165-491.649c0,0,23.894,326.814,16.256,496.368
						c-0.19,4.216,2.897,7.874,7.089,8.358c6.36,0.735,16.533,1.293,29.481-0.082c4.915-0.522,8.879-4.237,9.582-9.13
						c7.912-55.126,53.448-383.256,51.512-619.63c-0.11-13.33-15.639-122.85-15.639-122.85L2590.296,2426.791z"/>
				</g>
				
					<linearGradient id="SVGID_00000074427162739638191690000008018358960580544387_" gradientUnits="userSpaceOnUse" x1="11551.875" y1="-10253.2842" x2="11045.9707" y2="-9833.3838" gradientTransform="matrix(-1 0 0 1 -657.3674 0)">
					<stop  offset="0" style="stop-color:#FF928E"/>
					<stop  offset="1" style="stop-color:#FE7062"/>
				</linearGradient>
				<path style="fill:url(#SVGID_00000074427162739638191690000008018358960580544387_);" d="M2572.789,1904.723l-6.049,162.451
					c-17.18,5.912-33.537,10.511-49.112,13.945c-9.743-31.366-31.195-69.863-48.761-98.487
					C2533.407,1959.818,2572.789,1904.723,2572.789,1904.723z"/>
				
					<linearGradient id="SVGID_00000085250823190328588890000016777616500500260245_" gradientUnits="userSpaceOnUse" x1="2679.0078" y1="2066.5745" x2="2587.9404" y2="2525.2839">
					<stop  offset="0" style="stop-color:#FEBBBA"/>
					<stop  offset="1" style="stop-color:#FF928E"/>
				</linearGradient>
				<path style="fill:url(#SVGID_00000085250823190328588890000016777616500500260245_);" d="M2790.071,2444.684
					c4.645-1.651,7.884-5.862,8.389-10.765c6.008-58.287,35.097-419.692-148.551-568.359c0,0-10.531-27.555-97.099,40.179
					c-86.567,67.734-40.219,138.731-19.494,236.656c25.08,118.497,69.083,215.357,49.614,288.278
					c-1.344,5.032,1.302,10.316,6.189,12.117C2656.365,2467.573,2723.352,2468.393,2790.071,2444.684z"/>
				
					<linearGradient id="SVGID_00000177445999278378989420000002833515707922826112_" gradientUnits="userSpaceOnUse" x1="2564.0269" y1="1948.5399" x2="2624.7385" y2="1640.4844">
					<stop  offset="0" style="stop-color:#A22B25"/>
					<stop  offset="1" style="stop-color:#C0423C"/>
				</linearGradient>
				<path style="fill:url(#SVGID_00000177445999278378989420000002833515707922826112_);" d="M2578.273,1757.275
					c0.058,5.143,73.39,109.302,73.39,109.302s-13.163,25.923-76.001,46.971l-54.242-111.524L2578.273,1757.275z"/>
				
					<linearGradient id="SVGID_00000027603794653290854680000014567153367407111067_" gradientUnits="userSpaceOnUse" x1="-1525.8656" y1="-4439.7998" x2="-1728.2379" y2="-3704.5154" gradientTransform="matrix(-1 0 0 1 -657.3674 0)">
					<stop  offset="0" style="stop-color:#FF928E"/>
					<stop  offset="1" style="stop-color:#FE7062"/>
				</linearGradient>
				<path style="fill:url(#SVGID_00000027603794653290854680000014567153367407111067_);" d="M2614.601,2113.686
					c0.458,0,0.924-0.131,1.331-0.409c58.583-39.581,86.141-103.466,86.413-104.108c0.512-1.214-0.053-2.609-1.262-3.121
					c-1.214-0.516-2.607,0.047-3.124,1.261c-0.266,0.628-27.313,63.253-84.693,102.024c-1.091,0.735-1.377,2.214-0.639,3.308
					C2613.085,2113.319,2613.836,2113.686,2614.601,2113.686z"/>
				
					<linearGradient id="SVGID_00000051367402223721942740000016539012311444591791_" gradientUnits="userSpaceOnUse" x1="-1499.6592" y1="-4432.5859" x2="-1702.0313" y2="-3697.3022" gradientTransform="matrix(-1 0 0 1 -657.3674 0)">
					<stop  offset="0" style="stop-color:#FF928E"/>
					<stop  offset="1" style="stop-color:#FE7062"/>
				</linearGradient>
				<path style="fill:url(#SVGID_00000051367402223721942740000016539012311444591791_);" d="M2527.341,2025.138
					c0.781,0,1.549-0.387,2.004-1.094c0.177-0.274,18.074-28.132,52.162-89.171c10.483-18.769,24.259-30.654,40.946-35.325
					c27.635-7.721,54.268,7.095,54.531,7.243c1.146,0.633,2.596,0.251,3.247-0.893c0.649-1.144,0.251-2.596-0.893-3.247
					c-1.149-0.651-28.542-15.979-58.125-7.698c-17.974,5.014-32.734,17.663-43.865,37.594
					c-34.002,60.885-51.831,88.646-52.008,88.92c-0.712,1.103-0.393,2.577,0.712,3.289
					C2526.453,2025.017,2526.899,2025.138,2527.341,2025.138z"/>
				<g>
					
						<linearGradient id="SVGID_00000084529860540816947430000012753521590757600681_" gradientUnits="userSpaceOnUse" x1="-1384.2803" y1="-9060.6504" x2="-1474.2236" y2="-8831.2949" gradientTransform="matrix(-1 0 0 1 -3077.9644 0)">
						<stop  offset="0" style="stop-color:#A22B25"/>
						<stop  offset="1" style="stop-color:#C0423C"/>
					</linearGradient>
					<path style="fill:url(#SVGID_00000084529860540816947430000012753521590757600681_);" d="M2520.536,1697.589
						c0,0-26.093,59.941-27.846,91.401c-1.752,31.461-8.531,51.874,27.846,58.21c36.376,6.335,67.021-11.786,83.622-43.125
						c0,0,26.011-48.289,20.177-68.065C2618.5,1716.235,2520.536,1697.589,2520.536,1697.589z"/>
					
						<linearGradient id="SVGID_00000175303971293396850990000001651335788131671693_" gradientUnits="userSpaceOnUse" x1="-5698.0361" y1="1659.9796" x2="-5559.1118" y2="1838.8444" gradientTransform="matrix(-1 0 0 1 -3077.9644 0)">
						<stop  offset="0" style="stop-color:#09005D"/>
						<stop  offset="1" style="stop-color:#1A0F91"/>
					</linearGradient>
					<path style="fill:url(#SVGID_00000175303971293396850990000001651335788131671693_);" d="M2591.728,1781.543l-2.071-0.913
						c-2.636-1.162-3.765-4.3-2.44-6.859c5.129-9.911,15.13-32.623,2.211-37.922c-16.648-6.828-82.596-20.276-96.825-43.677
						c-13.676-22.489-1.559-51.521,16.651-59.778c1.219-0.552,2.656-0.114,3.281,1.069l1.517,2.871
						c1.039,1.966,3.942,1.668,4.56-0.468l0,0c0.593-2.05,3.32-2.447,4.451-0.638c4.374,7.001,16.182,18.351,47.758,24.178
						c44.878,8.283,74.547,26.443,75.286,57.455c0.047,1.97,2.143,3.065,3.826,2.04c3.313-2.019,8.616-2.967,15.702,2.992
						c12.325,10.363,7.281,37.245-19.736,59.359c-1.284,1.051-1.273,3.055,0.116,3.959c4.898,3.188,12.2,10.775-6.72,20.888
						c-19.569,10.461-34.182,9.603-39.809,8.674c-1.4-0.231-2.302-1.586-1.996-2.972l6.005-27.255
						c0.34-1.543-0.834-3.004-2.414-3.004H2591.728z"/>
					
						<linearGradient id="SVGID_00000005977121092375482850000007810175379982029743_" gradientUnits="userSpaceOnUse" x1="-1427.0657" y1="-9077.4277" x2="-1517.0089" y2="-8848.0723" gradientTransform="matrix(-1 0 0 1 -3077.9644 0)">
						<stop  offset="0" style="stop-color:#A22B25"/>
						<stop  offset="1" style="stop-color:#C0423C"/>
					</linearGradient>
					<path style="fill:url(#SVGID_00000005977121092375482850000007810175379982029743_);" d="M2590.598,1787.295
						c0,0,9.954-38.289,27.121-27.554c17.167,10.736-8.908,42.902-22.709,44.334L2590.598,1787.295z"/>
				</g>
				
					<linearGradient id="SVGID_00000087389985391339322840000010832535304643901354_" gradientUnits="userSpaceOnUse" x1="2676.9316" y1="1801.5743" x2="2992.7576" y2="2074.3889" gradientTransform="matrix(1 0 0 1 -496.4048 0)">
					<stop  offset="0" style="stop-color:#A22B25"/>
					<stop  offset="1" style="stop-color:#C0423C"/>
				</linearGradient>
				<path style="fill:url(#SVGID_00000087389985391339322840000010832535304643901354_);" d="M2252.722,1892.505
					c0,0,13.08-23.189,12.248-34.454c-0.832-11.266,6.188-27.811-1.282-26.586c-7.471,1.224-9.012,0.225-11.04,13.743
					C2250.619,1858.726,2227.042,1917.773,2252.722,1892.505z"/>
				
					<linearGradient id="SVGID_00000182515637304664981520000005964443634900290956_" gradientUnits="userSpaceOnUse" x1="2365.0359" y1="1886.7347" x2="2289.1504" y2="2498.8794">
					<stop  offset="0" style="stop-color:#A22B25"/>
					<stop  offset="1" style="stop-color:#C0423C"/>
				</linearGradient>
				<path style="fill:url(#SVGID_00000182515637304664981520000005964443634900290956_);" d="M2250.263,1855.636l0.3,46.323
					c88.534,95.589,160.193,101.215,218.303,80.673c17.567,28.624,39.019,67.121,48.762,98.487
					c-236.427,52.124-292.102-165.227-292.102-165.227c-32.023-13.264-38.478-21.024-37.101-29.716L2250.263,1855.636z"/>
				
					<linearGradient id="SVGID_00000081649389236730446140000010774058188180299173_" gradientUnits="userSpaceOnUse" x1="2665.2397" y1="1815.1095" x2="2981.0645" y2="2087.9231" gradientTransform="matrix(1 0 0 1 -496.4048 0)">
					<stop  offset="0" style="stop-color:#A22B25"/>
					<stop  offset="1" style="stop-color:#C0423C"/>
				</linearGradient>
				<path style="fill:url(#SVGID_00000081649389236730446140000010774058188180299173_);" d="M2182.176,1809.681
					c7.557-3.068,22.343-31.259,25.175-21.984s-1.196,21.984,0,25.928c1.196,3.945,19.63,49.315,15.949,59.395
					c-2.656,7.274-17.293,6.198-19.526,18.097c-0.741,3.949-3.898,6.782-7.559,6.784c-3.661,0.002-6.819-2.827-7.565-6.775
					C2188.35,1889.541,2174.619,1812.748,2182.176,1809.681z"/>
				<g>
					
						<linearGradient id="SVGID_00000059298590666450556610000012955759448063070396_" gradientUnits="userSpaceOnUse" x1="-157.3402" y1="2595.2385" x2="-765.6155" y2="3871.2935" gradientTransform="matrix(0.8234 -0.5674 0.5674 0.8234 711.2701 -1142.4948)">
						<stop  offset="0" style="stop-color:#E1473D"/>
						<stop  offset="1" style="stop-color:#E9605A"/>
					</linearGradient>
					<path style="fill:url(#SVGID_00000059298590666450556610000012955759448063070396_);" d="M1924.423,1773.707
						c1.725,107.53,74.037,197.368,172.088,226.1l0.375,23.358v0l0.875,54.542l24.097-0.386l0.622,38.803l-24.097,0.387
						l0.312,19.403l24.097-0.387l0.359,22.387l-24.097,0.387l0.503,31.342l11.411-0.183l0.646,40.296l-11.411,0.183l0.287,17.909
						l22.168-0.355l0.771,48.068l-22.168,0.356l0.593,37.002l24.098-0.387l0.635,39.552l-24.097,0.386l0.739,46.04
						c0.088,5.435,2.156,10.65,5.818,14.667l59.277,65.033c5.608,6.152,13.979,8.506,21.696,6.653
						c0.01-0.003,0.021-0.006,0.032-0.009c0.722-0.175,1.437-0.392,2.144-0.641c0.189-0.066,0.376-0.138,0.564-0.21
						c0.552-0.211,1.097-0.446,1.635-0.704c0.2-0.095,0.401-0.184,0.599-0.286c0.701-0.361,1.394-0.749,2.066-1.191l39.027-25.652
						c6.381-4.194,10.173-11.362,10.05-18.996l-7.377-459.652c97.078-31.863,166.469-123.978,164.744-231.505
						c-2.123-132.296-111.091-237.821-243.385-235.697C2027.825,1532.444,1922.3,1641.412,1924.423,1773.707z M2161.462,1613.899
						c26.789-0.43,48.854,20.939,49.283,47.727s-20.937,48.855-47.727,49.285c-26.788,0.43-48.854-20.94-49.284-47.728
						C2113.305,1636.395,2134.673,1614.329,2161.462,1613.899z"/>
					
						<linearGradient id="SVGID_00000027594539298965439010000018109175343593979838_" gradientUnits="userSpaceOnUse" x1="4573.4365" y1="1447.3615" x2="4239.894" y2="2111.0071" gradientTransform="matrix(-0.6569 0.754 0.754 0.6569 3520.5305 -2347.5923)">
						<stop  offset="0" style="stop-color:#FF928E"/>
						<stop  offset="1" style="stop-color:#FE7062"/>
					</linearGradient>
					<path style="fill:url(#SVGID_00000027594539298965439010000018109175343593979838_);" d="M2079.947,1861.064l3.497,217.9
						l24.097-0.387l0.623,38.803l-24.097,0.387l0.312,19.403l24.097-0.387l0.359,22.387l-24.097,0.386l0.503,31.342l11.411-0.183
						l0.647,40.297l-11.411,0.183l0.287,17.91l22.168-0.356l0.771,48.069l-22.168,0.356l0.594,37.002l24.098-0.387l0.635,39.551
						l-24.097,0.387l0.739,46.04c0.087,5.435,2.156,10.65,5.818,14.667l59.277,65.033c7.388,8.104,19.571,9.636,28.736,3.613
						l39.027-25.652c6.381-4.194,10.173-11.362,10.05-18.996l-8.905-554.878L2079.947,1861.064z"/>
					
						<linearGradient id="SVGID_00000053531596712295633740000001047285150032638389_" gradientUnits="userSpaceOnUse" x1="-578.2653" y1="2958.8193" x2="-85.7401" y2="4114.0146" gradientTransform="matrix(0.8234 -0.5674 0.5674 0.8234 711.2701 -1142.4948)">
						<stop  offset="0" style="stop-color:#FF9085"/>
						<stop  offset="1" style="stop-color:#FB6FBB"/>
					</linearGradient>
					<path style="fill:url(#SVGID_00000053531596712295633740000001047285150032638389_);" d="M2145.802,1531.578
						c-132.295,2.123-237.82,111.09-235.697,243.386c2.123,132.296,111.091,237.82,243.386,235.697
						c132.295-2.123,237.82-111.09,235.697-243.386C2387.065,1634.979,2278.097,1529.455,2145.802,1531.578z M2148.701,1712.168
						c-26.789,0.43-48.854-20.94-49.284-47.728c-0.43-26.788,20.938-48.854,47.727-49.284c26.789-0.43,48.854,20.94,49.284,47.728
						C2196.858,1689.671,2175.49,1711.738,2148.701,1712.168z"/>
					
						<linearGradient id="SVGID_00000073716470916682412150000005297198647250134205_" gradientUnits="userSpaceOnUse" x1="-657.8619" y1="3116.6641" x2="-452.3469" y2="3870.22" gradientTransform="matrix(0.8234 -0.5674 0.5674 0.8234 711.2701 -1142.4948)">
						<stop  offset="0" style="stop-color:#FEBBBA"/>
						<stop  offset="1" style="stop-color:#FF928E"/>
					</linearGradient>
					<path style="fill:url(#SVGID_00000073716470916682412150000005297198647250134205_);" d="M2389.188,1767.275
						c-2.123-132.296-111.091-237.82-243.386-235.697c-132.295,2.123-237.82,111.09-235.697,243.386
						c1.726,107.53,74.038,197.369,172.088,226.1l0.375,23.358c30.196-1.088,45.322,7.158,53.477,16.376
						c22.927,25.913,7.278,413.429,27.389,464.763c6.306,2.103,13.424,1.389,19.309-2.479l39.027-25.652
						c6.381-4.194,10.173-11.362,10.05-18.996l-7.377-459.652C2321.522,1966.918,2390.914,1874.803,2389.188,1767.275z
						 M2147.144,1615.156c26.789-0.43,48.854,20.94,49.284,47.728c0.43,26.788-20.938,48.854-47.727,49.284
						c-26.789,0.43-48.854-20.94-49.284-47.728C2098.987,1637.652,2120.355,1615.586,2147.144,1615.156z"/>
					
						<linearGradient id="SVGID_00000091704575049491411320000012329574517976025782_" gradientUnits="userSpaceOnUse" x1="2194.842" y1="1479.728" x2="1938.5052" y2="3132.4341">
						<stop  offset="0" style="stop-color:#FF928E"/>
						<stop  offset="1" style="stop-color:#FE7062"/>
					</linearGradient>
					<path style="fill:url(#SVGID_00000091704575049491411320000012329574517976025782_);" d="M2146.557,1578.591
						c-106.33,1.707-191.145,89.287-189.439,195.619c1.707,106.332,89.288,191.145,195.618,189.439
						c106.331-1.706,191.145-89.287,189.438-195.619C2340.469,1661.698,2252.888,1576.885,2146.557,1578.591z M2148.701,1712.168
						c-26.789,0.43-48.854-20.94-49.284-47.728c-0.43-26.788,20.938-48.854,47.727-49.284c26.789-0.43,48.854,20.94,49.284,47.728
						C2196.858,1689.671,2175.49,1711.738,2148.701,1712.168z"/>
				</g>
				
					<linearGradient id="SVGID_00000055678947774998196090000003482083245293377470_" gradientUnits="userSpaceOnUse" x1="3046.9038" y1="1547.9113" x2="2743.3608" y2="1785.6866">
					<stop  offset="0" style="stop-color:#A22B25"/>
					<stop  offset="1" style="stop-color:#C0423C"/>
				</linearGradient>
				<path style="fill:url(#SVGID_00000055678947774998196090000003482083245293377470_);" d="M2614.601,2113.686
					c0,0-225.608,75.525-351.803-20.555c-7.827-5.959-17.703-8.557-27.412-6.977l-48.21,7.855
					c-20.235,3.296-39.512-9.817-43.874-29.85c-2.488-11.427-3.687-23.926-1.152-34.661l91.012-5.49l-2.603-11.809
					c0,0,40.226,9.84,41.036,41.313c0,0,94.358,61.81,266.462-34.127C2538.057,2019.385,2605.076,2071.833,2614.601,2113.686z"/>
			</g>
			<g>
				
					<linearGradient id="SVGID_00000078748323835923118280000006464560678999878300_" gradientUnits="userSpaceOnUse" x1="2798.3657" y1="1764.73" x2="3451.3503" y2="2478.8">
					<stop  offset="0" style="stop-color:#09005D"/>
					<stop  offset="1" style="stop-color:#1A0F91"/>
				</linearGradient>
				<path style="fill:url(#SVGID_00000078748323835923118280000006464560678999878300_);" d="M2816.215,1985.469
					c9.272-19.469,25.446-32.255,35.202-51.337c12.288-24.037,12.709-55.868,4.658-82.648c-6.68-22.22-18.579-41.405-25.392-63.56
					c-9.169-29.818-9.341-42.645-5.163-72.579c3.679-26.367,11.736-54.45,31.64-69.572c24.619-18.704,54.733-22.252,82.913-15.483
					c29.25,7.027,57.609,22.82,79.008,49.134c21.399,26.314,35.348,63.234,34.993,101.084c-0.24,25.608-6.721,52.005-0.267,76.264
					c5.018,18.864,18.064,33.92,33.315,38.448c16.95,5.032,34.566-2.335,51.97-2.047c17.25,0.286,34.357,8.419,47.524,22.594
					c11.663,12.558,20.306,30.17,22.273,49.44c1.967,19.272-3.311,40.004-14.961,52.581c-7.966,8.602-19.177,14.425-22.118,27.177
					c-3.291,14.268,6.367,28.603,17.135,34.396c10.769,5.794,22.886,6.291,33.845,11.477c24.518,11.604,39.372,46.74,37.457,79.917
					c-1.915,33.177-18.421,63.208-40.068,81.887s-47.92,27.065-73.994,29.769c-26.074,2.702-52.279,0.06-78.41-1.506
					c-29.89-1.791-60.374-2.292-88.719-14.484c-28.664-12.33-53.431-35.919-76.524-60.784
					c-10.934-11.772-22.023-24.652-26.932-41.768c-3.564-12.428-3.58-26.235-7.678-38.394c-8.793-26.092-33.173-37.183-47.274-59.19
					C2806.35,2043.978,2804.491,2010.088,2816.215,1985.469z"/>
				<path style="fill:#BDD0FB;" d="M3140.5,2032.36c0.055,0,0.11-0.005,0.166-0.018c12.361-2.894,23.257-14.406,27.757-29.325
					c4.5-14.927,2.454-32.748-5.216-45.409c-11.391-18.804-31.448-23.671-51.015-27.045l-35.458-6.115
					c-20.011-3.45-40.51-8.39-52.018-27.193c-12.275-20.06-9.824-47.46-7.457-73.962c0.272-3.033,0.54-6.044,0.783-9.014
					c3.101-37.858-0.014-70.772-9.262-97.822c-11.284-33.004-32.317-57.286-56.264-64.949c-0.49-0.171-0.974,0.215-1.097,0.835
					c-0.122,0.615,0.173,1.238,0.656,1.391c23.408,7.493,43.985,31.281,55.046,63.639c9.122,26.686,12.192,59.21,9.124,96.664
					c-0.244,2.966-0.512,5.972-0.781,8.996c-2.41,26.96-4.901,54.836,7.826,75.631c11.926,19.49,32.82,24.551,53.199,28.064
					l35.458,6.115c19.196,3.307,38.855,8.053,49.826,26.166c7.295,12.042,9.242,28.992,4.962,43.184
					c-4.28,14.191-14.642,25.139-26.398,27.889c-0.49,0.117-0.815,0.714-0.725,1.337
					C3139.694,2031.974,3140.073,2032.36,3140.5,2032.36z"/>
				<path style="fill:#BDD0FB;" d="M3129.315,2018.519c0.443,0,0.887-0.206,1.235-0.619c4.334-5.164,9.248-11.019,12.162-18.44
					c2.648-6.739,3.969-16.74-0.268-24.614c-2.761-5.128-7.272-8.067-11.735-10.481c-10.83-5.86-22.211-10.055-33.829-12.459
					c-7.561-1.57-15.299-2.387-22.782-3.181c-9.662-1.023-19.652-2.082-29.212-4.765c-11.432-3.208-31.943-12.002-40.867-34.834
					c-7.212-18.454-4.534-39.034-1.698-60.821c2.298-17.664,4.675-35.934,1.417-53.292c-0.233-1.234-1.21-2.001-2.177-1.7
					c-0.97,0.296-1.569,1.535-1.338,2.768c3.089,16.457,0.773,34.26-1.468,51.475c-2.803,21.549-5.702,43.83,2.029,63.616
					c9.594,24.547,31.261,33.888,43.322,37.275c9.798,2.75,19.912,3.822,29.692,4.859c7.415,0.785,15.08,1.597,22.5,3.131
					c11.333,2.351,22.435,6.438,32.997,12.154c3.688,1.997,7.82,4.491,10.168,8.848c2.763,5.133,2.77,12.971,0.018,19.966
					c-2.625,6.685-7.086,12.002-11.4,17.139c-0.728,0.87-0.766,2.324-0.083,3.248
					C3128.352,2018.276,3128.834,2018.519,3129.315,2018.519z"/>
				
					<linearGradient id="SVGID_00000078005950377700319110000014866393768898280588_" gradientUnits="userSpaceOnUse" x1="3771.8015" y1="1425.7689" x2="3265.897" y2="1845.6703">
					<stop  offset="0" style="stop-color:#FF928E"/>
					<stop  offset="1" style="stop-color:#FE7062"/>
				</linearGradient>
				<path style="fill:url(#SVGID_00000078005950377700319110000014866393768898280588_);" d="M2850.436,1946.791
					c21.11-6.701,82.684-19.437,142.306,33.831c10.112,9.035,14.408,22.941,11.066,36.082
					c-14.844,58.347-53.711,230.646-16.011,304.32c0,0-63.186,71.95-134.287,15.925c0,0-33.699-136.729-75.912-196.312
					c-29.144-41.135,42.887-156.922,61.134-184.909C2841.494,1951.49,2845.615,1948.321,2850.436,1946.791z"/>
				
					<linearGradient id="SVGID_00000078726690052422674510000004256264871623322553_" gradientUnits="userSpaceOnUse" x1="-6640.729" y1="3203.8816" x2="-6623.749" y2="3083.3228" gradientTransform="matrix(0.9646 0.2639 -0.2639 0.9646 10111.1621 665.1306)">
					<stop  offset="0" style="stop-color:#FEBBBA"/>
					<stop  offset="1" style="stop-color:#FF928E"/>
				</linearGradient>
				<path style="fill:url(#SVGID_00000078726690052422674510000004256264871623322553_);" d="M2907.147,1830.433
					c0,0,32.801,88.232,35.792,127.341c0,0-34.419,16.325-67.518-9.76c0,0-4.856-88.578-10.065-104.369L2907.147,1830.433z"/>
				
					<linearGradient id="SVGID_00000145737191021568633290000011613607423747728538_" gradientUnits="userSpaceOnUse" x1="-6718.5752" y1="2945.5581" x2="-6559.8071" y2="3128.0989" gradientTransform="matrix(0.9646 0.2639 -0.2639 0.9646 10111.1621 665.1306)">
					<stop  offset="0" style="stop-color:#FEBBBA"/>
					<stop  offset="1" style="stop-color:#FF928E"/>
				</linearGradient>
				<path style="fill:url(#SVGID_00000145737191021568633290000011613607423747728538_);" d="M2861.622,1710.145
					c0,0-80.205,116.152-30.618,148.717c49.586,32.564,106.684-49.982,106.684-49.982s18.027-63.158-2.225-84.158
					C2915.211,1703.72,2861.622,1710.145,2861.622,1710.145z"/>
				
					<linearGradient id="SVGID_00000065796165851580360280000012810165948124368313_" gradientUnits="userSpaceOnUse" x1="2898.9377" y1="1698.2987" x2="3604.9534" y2="2470.3606">
					<stop  offset="0" style="stop-color:#09005D"/>
					<stop  offset="1" style="stop-color:#1A0F91"/>
				</linearGradient>
				<path style="fill:url(#SVGID_00000065796165851580360280000012810165948124368313_);" d="M2899.159,1682.092
					c0,0-37.551,9.539-42.559,26.679c-5.009,17.141,53.985,32.011,70.456,32.52l14.37,68.612c0,0,38.159-65.377,22.028-102.519
					C2947.323,1670.24,2899.159,1682.092,2899.159,1682.092z"/>
				
					<linearGradient id="SVGID_00000062895766026384011750000007722965773973718708_" gradientUnits="userSpaceOnUse" x1="-6678.9087" y1="2911.054" x2="-6520.1416" y2="3093.5933" gradientTransform="matrix(0.9646 0.2639 -0.2639 0.9646 10111.1621 665.1306)">
					<stop  offset="0" style="stop-color:#FEBBBA"/>
					<stop  offset="1" style="stop-color:#FF928E"/>
				</linearGradient>
				<path style="fill:url(#SVGID_00000062895766026384011750000007722965773973718708_);" d="M2921.646,1800.686
					c0,0,31.342-37.503,44.434-13.594c13.092,23.909-28.068,42.681-42.608,31.073L2921.646,1800.686z"/>
				
					<linearGradient id="SVGID_00000067914339027988106740000006775540355216560051_" gradientUnits="userSpaceOnUse" x1="6064.4956" y1="3402.374" x2="6443.2988" y2="2733.7056" gradientTransform="matrix(-1 0.0066 0.0066 1 9204.791 -61.4477)">
					<stop  offset="0" style="stop-color:#FEBBBA"/>
					<stop  offset="1" style="stop-color:#FF928E"/>
				</linearGradient>
				<path style="fill:url(#SVGID_00000067914339027988106740000006775540355216560051_);" d="M2776.223,2626.409
					c0.341,6.226-9.802,55.82-15.33,82.276c-2.225,10.644-0.377,21.717,5.175,31.067l211.757,343.67
					c2.562,4.157,4.45,8.674,5.63,13.412c4.041,16.223,12.52,56.003,9.013,92.374l-10.308,22.323l45.958-11.217l8.041-124.033
					l-13.187-7.752c-11.392-6.697-20.342-16.838-25.568-28.975c-19.372-44.983-67.523-159.508-80.362-215.492
					c-14.589-63.626-86.322-114.34-86.322-114.34l11.981-29.648L2776.223,2626.409z"/>
				
					<linearGradient id="SVGID_00000060729913177534765370000011397872404333948034_" gradientUnits="userSpaceOnUse" x1="6147.0708" y1="3165.9609" x2="6257.7949" y2="3165.9609" gradientTransform="matrix(-1 0.0066 0.0066 1 9204.791 -61.4477)">
					<stop  offset="0" style="stop-color:#09005D"/>
					<stop  offset="1" style="stop-color:#1A0F91"/>
				</linearGradient>
				<path style="fill:url(#SVGID_00000060729913177534765370000011397872404333948034_);" d="M3078.694,3156.865
					c0,0-25.545-39.09-28.723-54.415c-3.178-15.325-11.774-42.339-27-33.92c0,0-6.034,74.791-3.069,103.928
					c2.964,29.138-32.531,28.771-32.531,28.771s-9.756,1.532-16.801,8.806c-4.865,5.023-1.191,13.543,5.794,13.881
					c11.622,0.561,30.067,0.46,49.371-3.594c6.747-1.417,11.671-7.256,11.969-14.143l3.728-86.026l32.06,39.168L3078.694,3156.865z"
					/>
				
					<linearGradient id="SVGID_00000123404019873037560540000002820794315404603832_" gradientUnits="userSpaceOnUse" x1="6493.7744" y1="2907.7095" x2="5927.2549" y2="3088.8643" gradientTransform="matrix(-1 0.0066 0.0066 1 9204.791 -61.4477)">
					<stop  offset="0" style="stop-color:#FEBBBA"/>
					<stop  offset="1" style="stop-color:#FF928E"/>
				</linearGradient>
				<path style="fill:url(#SVGID_00000123404019873037560540000002820794315404603832_);" d="M2900.275,2679.698
					c0,0,12.271,310.263,13.966,354.329c1.694,44.066-4.677,141.885-48.398,171.797l19.458,13.927c0,0,23.702-20.812,46.546-60.499
					c25.662-44.583,33.507-52.78,33.507-52.78l-9.04-17.781c-3.958-7.785-5.227-16.643-3.6-25.223
					c8.791-46.373,38.173-200.619,46.331-233.866c9.629-39.246,9.517-91.446-26.875-134.556
					C2935.779,2651.935,2900.275,2679.698,2900.275,2679.698z"/>
				
					<linearGradient id="SVGID_00000082369377201295637400000017461791715189566628_" gradientUnits="userSpaceOnUse" x1="6249.7275" y1="3185.9592" x2="6381.7212" y2="3185.9592" gradientTransform="matrix(-1 0.0066 0.0066 1 9204.791 -61.4477)">
					<stop  offset="0" style="stop-color:#09005D"/>
					<stop  offset="1" style="stop-color:#1A0F91"/>
				</linearGradient>
				<path style="fill:url(#SVGID_00000082369377201295637400000017461791715189566628_);" d="M2950.001,3232.7
					c1.371-0.009,2.52-1.01,2.692-2.37c1.305-10.371,6.757-51.955,11.594-62.777c5.541-12.394,23.451-64.475-1.114-68.476
					c0,0-59.461,89.947-70.957,102.13c-11.496,12.184-26.374,4.617-26.374,4.617s-11.335,3.548-19.747,14.662
					c-4.003,5.29-0.072,12.897,6.562,12.853l41.022-0.27c11.914-0.078,22.51-7.487,26.761-18.617
					c6.93-18.149,18.906-44.8,33.171-56.767l-6.352,72.04C2947.117,3231.332,2948.388,3232.711,2950.001,3232.7L2950.001,3232.7z"/>
				
					<linearGradient id="SVGID_00000098191647146152722590000000517245086367032964_" gradientUnits="userSpaceOnUse" x1="2888.8169" y1="2569.79" x2="3076.0015" y2="2261.1882">
					<stop  offset="0" style="stop-color:#E1473D"/>
					<stop  offset="1" style="stop-color:#E9605A"/>
				</linearGradient>
				<path style="fill:url(#SVGID_00000098191647146152722590000000517245086367032964_);" d="M2843.261,2303.639
					c0,0,9.718,29.311-3.7,78.063l-83.13,309.014c-1.306,4.856,1.384,9.872,6.143,11.494c26.5,9.032,113.544,34.364,231.648,24.309
					c5.946-0.507,10.87-4.802,12.07-10.648c7.226-35.193,31.88-155.266,36.958-179.937c19.345-94.009,41.003-195.403-62.417-254.836
					C2933.95,2302.08,2890.112,2314.708,2843.261,2303.639z"/>
				
					<linearGradient id="SVGID_00000134964044954781678440000000274484654671321788_" gradientUnits="userSpaceOnUse" x1="6132.7598" y1="2432.3391" x2="6761.1206" y2="1713.587" gradientTransform="matrix(-0.9941 -0.1087 -0.1087 0.9941 9471.2598 593.1596)">
					<stop  offset="0" style="stop-color:#FEBBBA"/>
					<stop  offset="1" style="stop-color:#FF928E"/>
				</linearGradient>
				<path style="fill:url(#SVGID_00000134964044954781678440000000274484654671321788_);" d="M3001.334,1992.078
					c0,0,101.562,81.674,128.267,195.084c26.705,113.41-144.42,128.266-144.42,128.266s-23.676-25.597-51.138-15.889
					c-27.461,9.707-2.868-45.292,29.441-45.669c32.307-0.377,17.753,25.409,63.121,3.972
					c44.194-20.883,70.706-83.692-44.403-176.402c-6.673-5.373-12.039-12.275-15.33-20.186
					C2943.91,2006.063,2960.826,1969.37,3001.334,1992.078z"/>
			</g>
			<g>
				
					<linearGradient id="SVGID_00000138548860555577105590000010420004923796298380_" gradientUnits="userSpaceOnUse" x1="4326.8384" y1="3678.822" x2="4420.8052" y2="3892.6177" gradientTransform="matrix(0.9776 -0.2106 0.2106 0.9776 -2725.802 -113.5247)">
					<stop  offset="0" style="stop-color:#FEBBBA"/>
					<stop  offset="1" style="stop-color:#FF928E"/>
				</linearGradient>
				<path style="fill:url(#SVGID_00000138548860555577105590000010420004923796298380_);" d="M2239.155,2503
					c0,0,57.575,155.14,145.146,136.103c0,0,9.028,52.791-5.711,59.016c0,0-131.356,3.807-144.407-176.595L2239.155,2503z"/>
				<g>
					
						<linearGradient id="SVGID_00000168796327803031482660000015454772612968881024_" gradientUnits="userSpaceOnUse" x1="4329.3125" y1="3695.0317" x2="4431.6235" y2="3927.8127" gradientTransform="matrix(0.9776 -0.2106 0.2106 0.9776 -2725.802 -113.5247)">
						<stop  offset="0" style="stop-color:#FEBBBA"/>
						<stop  offset="1" style="stop-color:#FF928E"/>
					</linearGradient>
					<path style="fill:url(#SVGID_00000168796327803031482660000015454772612968881024_);" d="M2241.625,2539.355
						c-0.25,2.689,9.75,4.548,12.932-6.916c-0.875-4.977-2.428-26.772-6.245-30.158c-20.324-18.034-56.566-38.321-56.566-38.321
						c-4.054,6.188,1.262,10.264,1.262,10.264l18.091,12.209c-1.887,6.251-4.641,11.777-4.953,18.913
						c-0.236,5.404,1.76,10.695,5.347,14.794c3.6,4.114,8.447,9.426,12.817,13.458
						C2232.581,2541.233,2241.625,2539.355,2241.625,2539.355z"/>
					
						<linearGradient id="SVGID_00000057114682192036572010000000379236254074503855_" gradientUnits="userSpaceOnUse" x1="2215.8323" y1="2511.7769" x2="2243.7351" y2="2511.7769">
						<stop  offset="0" style="stop-color:#FF928E"/>
						<stop  offset="1" style="stop-color:#FE7062"/>
					</linearGradient>
					<path style="fill:url(#SVGID_00000057114682192036572010000000379236254074503855_);" d="M2231.617,2530.542
						c-2.441-5.948-9.463-22.106-12.602-25.389c-2.263-2.363-3.3-4.534-3.172-6.634c0.105-1.774,1.024-3.343,2.803-4.797l0.87-0.711
						l17.309,9.252l6.91,10.827l-2.846,1.815l-6.436-10.083l-14.466-7.735c-0.491,0.555-0.744,1.097-0.777,1.639
						c-0.066,1.077,0.708,2.493,2.243,4.096c4.15,4.34,12.362,24.191,13.287,26.439L2231.617,2530.542z"/>
				</g>
				
					<linearGradient id="SVGID_00000009590648547862299900000012148223864815730590_" gradientUnits="userSpaceOnUse" x1="-5943.5923" y1="2381.3989" x2="-6051.2334" y2="2476.3762" gradientTransform="matrix(-1 0 0 1 -3640.8152 0)">
					<stop  offset="0" style="stop-color:#09005D"/>
					<stop  offset="1" style="stop-color:#1A0F91"/>
				</linearGradient>
				<path style="fill-rule:evenodd;clip-rule:evenodd;fill:url(#SVGID_00000009590648547862299900000012148223864815730590_);" d="
					M2383.461,2438.171c0,0,27.804-25.113-7.946-52.338c-33.587-25.578-58.135,8.748-47.004,30.835
					c0.789,1.565-0.103,3.464-1.816,3.839c-2.932,0.642-5.471,3.566-0.844,13.884c0.398,0.888,0.271,1.925-0.311,2.705
					c-4.12,5.523-17.854,27.648,23.57,31.03c0.745,0.061,1.493-0.195,2.047-0.697L2383.461,2438.171z"/>
				
					<linearGradient id="SVGID_00000032623235248260788820000000586203352790397840_" gradientUnits="userSpaceOnUse" x1="-6891.8784" y1="1240.7822" x2="-6804.5107" y2="1240.7822" gradientTransform="matrix(-0.9842 -0.1769 -0.1769 0.9842 -3947.6167 46.5997)">
					<stop  offset="0" style="stop-color:#09005D"/>
					<stop  offset="1" style="stop-color:#1A0F91"/>
				</linearGradient>
				<path style="fill-rule:evenodd;clip-rule:evenodd;fill:url(#SVGID_00000032623235248260788820000000586203352790397840_);" d="
					M2529.51,2475.03c0,0,2.668-32.046,19.819-42.494c17.151-10.447,50.445-19.33,64.394,15.513
					c6.653,16.619,4.45,24.527,0.325,28.252c-3.76,3.396-4.183,8.677-1.698,13.113c2.825,5.044,3.203,11.282-5.314,16.945
					c-2.513,1.67-4.201,4.132-4.735,6.92c-2.224,11.618-14.114,39.491-77.651,9.016L2529.51,2475.03z"/>
				
					<linearGradient id="SVGID_00000061445020074959450550000012445743556523183497_" gradientUnits="userSpaceOnUse" x1="-2203.6716" y1="-1869.9648" x2="-2675.4854" y2="-1540.7325" gradientTransform="matrix(-0.9842 -0.1769 -0.1769 0.9842 -3947.6167 46.5997)">
					<stop  offset="0" style="stop-color:#09005D"/>
					<stop  offset="1" style="stop-color:#1A0F91"/>
				</linearGradient>
				<path style="fill-rule:evenodd;clip-rule:evenodd;fill:url(#SVGID_00000061445020074959450550000012445743556523183497_);" d="
					M2456.05,2417.411c12.504-5.362,38.991-10.822,59.594,25.213c1.438,2.515,3.518,4.595,6.054,5.994
					c12.276,6.768,47.805,31.366,15.452,75.757c-1.48,2.031-2.457,4.385-2.815,6.872c-1.083,7.523-4.661,24.187-15.422,28.299
					c-3.215,1.229-5.917,3.489-7.704,6.431c-7.232,11.906-27.854,36.949-62.546,10.793c-1.767-1.333-3.803-2.279-5.964-2.755
					l-47.912-10.554c-2.55-0.562-5.191-0.454-7.697,0.278c-5.858,1.711-17.693,3.208-22.097-10.568
					c-0.897-2.808-2.56-5.304-4.805-7.213c-8.032-6.828-25.089-25.345-12.187-51.307c1.444-2.906,1.974-6.175,1.475-9.381
					c-1.512-9.723-2.304-31.313,17.874-40.628c3.033-1.4,5.558-3.682,7.098-6.647c6.73-12.953,28.662-46.139,67.307-21.801
					C2446.051,2418.898,2451.385,2419.411,2456.05,2417.411z"/>
				
					<linearGradient id="SVGID_00000067232628249173708970000015162194908450813103_" gradientUnits="userSpaceOnUse" x1="-6038.7617" y1="3198.1912" x2="-5955.0918" y2="3198.1912" gradientTransform="matrix(-1 0 0 1 -3640.8152 0)">
					<stop  offset="0" style="stop-color:#E1473D"/>
					<stop  offset="1" style="stop-color:#E9605A"/>
				</linearGradient>
				<path style="fill-rule:evenodd;clip-rule:evenodd;fill:url(#SVGID_00000067232628249173708970000015162194908450813103_);" d="
					M2390.975,3178.804l6.971,8.058l-4.783,17.496c-1.254,4.588-5.028,8.041-9.706,8.898c-15.571,2.851-50.882,8.009-69.049,0.189
					c0,0-5.651-37.861,56.941-26.583L2390.975,3178.804z"/>
				
					<linearGradient id="SVGID_00000176009826462352004320000003927487893938642583_" gradientUnits="userSpaceOnUse" x1="-6144.6675" y1="3225.3198" x2="-6098.1284" y2="3225.3198" gradientTransform="matrix(-1 0 0 1 -3640.8152 0)">
					<stop  offset="0" style="stop-color:#E1473D"/>
					<stop  offset="1" style="stop-color:#E9605A"/>
				</linearGradient>
				<path style="fill-rule:evenodd;clip-rule:evenodd;fill:url(#SVGID_00000176009826462352004320000003927487893938642583_);" d="
					M2500.14,3198.911l3.712,9.113l-1.505,32.812c-0.211,4.612-3.932,8.481-8.947,9.255c-6.845,1.056-16.8,2.124-26.166,1.4
					c-7.333-0.567-11.927-7.455-9.057-13.604l11.046-23.667c1.652-3.541,4.671-6.259,8.365-7.533L2500.14,3198.911z"/>
				
					<linearGradient id="SVGID_00000176748076483623471870000010215511434151619004_" gradientUnits="userSpaceOnUse" x1="-6091.1802" y1="2697.1436" x2="-6084.4497" y2="2628.7146" gradientTransform="matrix(-1 0 0 1 -3640.8152 0)">
					<stop  offset="0" style="stop-color:#FEBBBA"/>
					<stop  offset="1" style="stop-color:#FF928E"/>
				</linearGradient>
				<path style="fill-rule:evenodd;clip-rule:evenodd;fill:url(#SVGID_00000176748076483623471870000010215511434151619004_);" d="
					M2468.361,2559.259l7.127,70.594c0,0-38.374,13.014-63.647-1.675l6.83-70.88L2468.361,2559.259z"/>
				
					<linearGradient id="SVGID_00000029739814565625339700000004557849864488376982_" gradientUnits="userSpaceOnUse" x1="-5789.6802" y1="1991.1613" x2="-5507.8301" y2="1127.9933" gradientTransform="matrix(-1 0 0 1 -3640.8152 0)">
					<stop  offset="0" style="stop-color:#FEBBBA"/>
					<stop  offset="1" style="stop-color:#FF928E"/>
				</linearGradient>
				<path style="fill-rule:evenodd;clip-rule:evenodd;fill:url(#SVGID_00000029739814565625339700000004557849864488376982_);" d="
					M2529.913,2945.757c0,0-18.216,203.074-30.245,265.209c0,0-9,6.558-22.466-1.898l-16.348-271.006L2529.913,2945.757z"/>
				
					<linearGradient id="SVGID_00000137120286458846939580000014376773860046856614_" gradientUnits="userSpaceOnUse" x1="-5705.394" y1="2018.682" x2="-5423.5439" y2="1155.5139" gradientTransform="matrix(-1 0 0 1 -3640.8152 0)">
					<stop  offset="0" style="stop-color:#FEBBBA"/>
					<stop  offset="1" style="stop-color:#FF928E"/>
				</linearGradient>
				<path style="fill-rule:evenodd;clip-rule:evenodd;fill:url(#SVGID_00000137120286458846939580000014376773860046856614_);" d="
					M2448.969,2957.95l-49.902,227.418c0,0-13.577,14.077-31.221,0l8.601-239.074L2448.969,2957.95z"/>
				
					<linearGradient id="SVGID_00000163758544849015660380000015046049089284664962_" gradientUnits="userSpaceOnUse" x1="-6350.6108" y1="2974.0579" x2="-6124.6826" y2="2663.6357" gradientTransform="matrix(-1 0 0 1 -3640.8152 0)">
					<stop  offset="0" style="stop-color:#FEBBBA"/>
					<stop  offset="1" style="stop-color:#FF928E"/>
				</linearGradient>
				<path style="fill-rule:evenodd;clip-rule:evenodd;fill:url(#SVGID_00000163758544849015660380000015046049089284664962_);" d="
					M2512.096,2635.171l12.487,1.393c24.172,25.919,68.513,204.028,84.505,241.902l65.082-10.63c2.551-0.525,4.635,2.01,3.648,4.421
					c-2.89,7.061-13.729,27.431-55.971,27.431c-19.735,0,11.07,15.315-0.732,20.57c0,0-25.937-9.338-25.978-25.762
					c0,0-74.351-169.353-89.638-187.18C2490.212,2689.489,2512.096,2635.171,2512.096,2635.171z"/>
				
					<linearGradient id="SVGID_00000153664389386581704570000000658035003263206068_" gradientUnits="userSpaceOnUse" x1="3849.9006" y1="1519.8678" x2="3343.9966" y2="1939.7688">
					<stop  offset="0" style="stop-color:#FF928E"/>
					<stop  offset="1" style="stop-color:#FE7062"/>
				</linearGradient>
				<path style="fill-rule:evenodd;clip-rule:evenodd;fill:url(#SVGID_00000153664389386581704570000000658035003263206068_);" d="
					M2524.583,2636.563c0,0-66.142-24.505-148.703,0.861c0,0-9.256,62.507-4.493,92.257l142.27,5.152L2524.583,2636.563z"/>
				
					<linearGradient id="SVGID_00000048471469179593933430000007463823998764113561_" gradientUnits="userSpaceOnUse" x1="3953.998" y1="1645.2834" x2="3448.0935" y2="2065.1848">
					<stop  offset="0" style="stop-color:#FF928E"/>
					<stop  offset="1" style="stop-color:#FE7062"/>
				</linearGradient>
				<path style="fill-rule:evenodd;clip-rule:evenodd;fill:url(#SVGID_00000048471469179593933430000007463823998764113561_);" d="
					M2373.331,2749.218c0,0-45.467,145.964-52.215,243.216c-0.347,5.003,3.416,9.318,8.418,9.676
					c9.462,0.677,26.15,3.008,48.82,10.557c36.761,12.241,67.199,8.206,94.681,0.314c21.571-6.194,75.516-11.611,97.723-13.655
					c5.291-0.487,9.024-5.39,8.085-10.62c-6.458-35.983-30.985-163.699-68.197-250.512L2373.331,2749.218z"/>
				
					<linearGradient id="SVGID_00000036973975221814812550000016818268677861282472_" gradientUnits="userSpaceOnUse" x1="3873.5215" y1="1548.3345" x2="3367.6172" y2="1968.2355">
					<stop  offset="0" style="stop-color:#E1473D"/>
					<stop  offset="1" style="stop-color:#E9605A"/>
				</linearGradient>
				<path style="fill-rule:evenodd;clip-rule:evenodd;fill:url(#SVGID_00000036973975221814812550000016818268677861282472_);" d="
					M2370.922,2726.312l2.409,22.906c0,0,43.751,0.168,140.409-3.083l0.502-16.569
					C2514.242,2729.567,2407.16,2731.664,2370.922,2726.312z"/>
				
					<linearGradient id="SVGID_00000009563230461330904150000011156460234738186653_" gradientUnits="userSpaceOnUse" x1="-6730.5771" y1="1265.8143" x2="-6721.6133" y2="1132.4763" gradientTransform="matrix(-0.9852 -0.1732 -0.1896 1.0333 -3969.5422 130.4457)">
					<stop  offset="0" style="stop-color:#FEBBBA"/>
					<stop  offset="1" style="stop-color:#FF928E"/>
				</linearGradient>
				<path style="fill-rule:evenodd;clip-rule:evenodd;fill:url(#SVGID_00000009563230461330904150000011156460234738186653_);" d="
					M2371.237,2490.816c-10.985,42.447-7.779,91.228,42.161,102.172c34.552,7.572,70.861-27.633,81.846-70.08
					c10.985-42.447-7.823-74.773-42.066-83.635C2418.935,2430.412,2382.222,2448.369,2371.237,2490.816z"/>
				
					<linearGradient id="SVGID_00000026854529245750946410000002832843249094906536_" gradientUnits="userSpaceOnUse" x1="-6655.8438" y1="1387.0732" x2="-6646.8691" y2="1253.5778" gradientTransform="matrix(-0.9842 -0.1769 -0.1769 0.9842 -3947.6167 46.5997)">
					<stop  offset="0" style="stop-color:#FEBBBA"/>
					<stop  offset="1" style="stop-color:#FF928E"/>
				</linearGradient>
				<path style="fill-rule:evenodd;clip-rule:evenodd;fill:url(#SVGID_00000026854529245750946410000002832843249094906536_);" d="
					M2374.993,2503.91c0,0-1.636-25.666-14.437-17.75c-12.801,7.916,4.948,38.676,12.86,40.479S2374.993,2503.91,2374.993,2503.91z"
					/>
				
					<linearGradient id="SVGID_00000133489711451409935240000017032109788803217064_" gradientUnits="userSpaceOnUse" x1="-6781.7739" y1="1378.6073" x2="-6772.7993" y2="1245.1094" gradientTransform="matrix(-0.9842 -0.1769 -0.1769 0.9842 -3947.6167 46.5997)">
					<stop  offset="0" style="stop-color:#FEBBBA"/>
					<stop  offset="1" style="stop-color:#FF928E"/>
				</linearGradient>
				<path style="fill-rule:evenodd;clip-rule:evenodd;fill:url(#SVGID_00000133489711451409935240000017032109788803217064_);" d="
					M2484.506,2533.512c0,0,3.829-19.578,17.7-10.529c13.87,9.049-12.595,41.038-28.905,33.922L2484.506,2533.512z"/>
				
					<linearGradient id="SVGID_00000118379059480626736710000002407424394991828117_" gradientUnits="userSpaceOnUse" x1="-2212.5386" y1="-1882.6602" x2="-2684.3518" y2="-1553.4281" gradientTransform="matrix(-0.9842 -0.1769 -0.1769 0.9842 -3947.6167 46.5997)">
					<stop  offset="0" style="stop-color:#09005D"/>
					<stop  offset="1" style="stop-color:#1A0F91"/>
				</linearGradient>
				<path style="fill-rule:evenodd;clip-rule:evenodd;fill:url(#SVGID_00000118379059480626736710000002407424394991828117_);" d="
					M2505.035,2517.947c0,0-39.711,42.991-60.343-46.219c0,0-20.589,26.649-29.986,3.078c0,0-40.988,14.048-45.517-3.193
					c-4.529-17.241,55.412-63.991,103.616-30.44C2521.01,2474.723,2505.035,2517.947,2505.035,2517.947z"/>
			</g>
		</g>
		<g>
			
				<linearGradient id="SVGID_00000078737760990494122470000000384735898939590794_" gradientUnits="userSpaceOnUse" x1="1597.6053" y1="4333.1675" x2="1637.7561" y2="3559.3447" gradientTransform="matrix(-1 0 0 1 2861.6616 0)">
				<stop  offset="0" style="stop-color:#09005D"/>
				<stop  offset="1" style="stop-color:#1A0F91"/>
			</linearGradient>
			<path style="fill:url(#SVGID_00000078737760990494122470000000384735898939590794_);" d="M1153.355,3230.537
				c-0.012-0.804,0.042-1.619,0.248-2.439c12.162-48.219,61.893-72.935,61.893-72.935l23.921,1.875
				c13.753,42.5,22.621,63.248,20.413,74.857c-0.061,0.326-0.16,0.635-0.247,0.95
				C1239.851,3234.608,1199.236,3235.759,1153.355,3230.537z"/>
			<path style="fill:#7D97F4;" d="M1259.583,3232.845c-1.065,3.877-3.927,6.896-7.59,7.666c-28.07,5.903-72.684,1.152-91.415-1.297
				c-4.132-0.54-7.153-4.362-7.222-8.677C1199.236,3235.759,1239.851,3234.608,1259.583,3232.845z"/>
			
				<linearGradient id="SVGID_00000029743443214935658500000010667944744673976765_" gradientUnits="userSpaceOnUse" x1="3036.9521" y1="3069.4102" x2="3015.6279" y2="3255.5125" gradientTransform="matrix(1 0 0 1 -1811.8352 0)">
				<stop  offset="0" style="stop-color:#FEBBBA"/>
				<stop  offset="1" style="stop-color:#FF928E"/>
			</linearGradient>
			<path style="fill:url(#SVGID_00000029743443214935658500000010667944744673976765_);" d="M1195.799,3117.938l10.473,50.419
				c0.768,3.694,3.606,6.461,7.045,6.784c4.209,0.395,10.201,0.627,16.226-0.259c5.403-0.794,9.166-6.284,8.208-12.177l-7.28-44.767
				H1195.799z"/>
			<path style="fill:#7D97F4;" d="M1462.833,3232.427c-25.548-0.715-38.761-3.724-45.593-6.516c-0.016,2.54-0.001,5.125,0.081,7.804
				c0.088,2.861,2.208,5.146,4.814,5.129l140.273-0.906c4.477-0.029,7.093-5.22,5.152-9.325
				C1549.168,3230.132,1502.325,3233.532,1462.833,3232.427z"/>
			
				<linearGradient id="SVGID_00000034772553423167766500000014016195263500166533_" gradientUnits="userSpaceOnUse" x1="3286.6833" y1="3563.4397" x2="3326.834" y2="2789.6201" gradientTransform="matrix(1 0 0 1 -1811.8352 0)">
				<stop  offset="0" style="stop-color:#09005D"/>
				<stop  offset="1" style="stop-color:#1A0F91"/>
			</linearGradient>
			<path style="fill:url(#SVGID_00000034772553423167766500000014016195263500166533_);" d="M1567.56,3228.613
				c-0.169-0.357-0.314-0.721-0.555-1.058c-12.388-17.309-43.94-51.777-106.286-66.727l-29.91-0.944
				c0,0-13.318,23.148-13.569,66.027c6.832,2.792,20.045,5.801,45.593,6.516C1502.325,3233.532,1549.168,3230.132,1567.56,3228.613z
				"/>
			
				<linearGradient id="SVGID_00000129194329416661872500000016223249894271322774_" gradientUnits="userSpaceOnUse" x1="3261.5862" y1="3093.2192" x2="3241.6387" y2="3267.3069" gradientTransform="matrix(1 0 0 1 -1811.8352 0)">
				<stop  offset="0" style="stop-color:#FEBBBA"/>
				<stop  offset="1" style="stop-color:#FF928E"/>
			</linearGradient>
			<path style="fill:url(#SVGID_00000129194329416661872500000016223249894271322774_);" d="M1425.262,3114.556
				c0.332,2.229,4.432,36.113,6.019,49.251c0.377,3.122,2.638,5.537,5.489,5.878c5.093,0.608,13.335,1.161,20.545-0.317
				c3.89-0.797,6.705-4.534,6.705-8.878v-53.189L1425.262,3114.556z"/>
			
				<linearGradient id="SVGID_00000005228702041436444950000006403617185410988446_" gradientUnits="userSpaceOnUse" x1="1665.2722" y1="1854.1824" x2="1216.2649" y2="3168.3494">
				<stop  offset="0" style="stop-color:#E1473D"/>
				<stop  offset="1" style="stop-color:#E9605A"/>
			</linearGradient>
			<path style="fill:url(#SVGID_00000005228702041436444950000006403617185410988446_);" d="M1215.785,2455.866
				c0,0-47.861,425.427-21.271,691.32c0,0,31.907,0,47.861-5.318c0,0,49.734-415.958,65.824-534.987
				c0.606-4.487,7.012-4.69,7.892-0.249c19.851,100.139,97.82,492.834,107.091,529.919c0,0,26.589,10.636,47.86,0
				c0,0-42.542-569.009-74.449-670.049L1215.785,2455.866z"/>
			
				<linearGradient id="SVGID_00000148653290434303850760000016491469385644180114_" gradientUnits="userSpaceOnUse" x1="1373.3623" y1="2157.7041" x2="860.5254" y2="2408.2502">
				<stop  offset="0" style="stop-color:#09005D"/>
				<stop  offset="1" style="stop-color:#1A0F91"/>
			</linearGradient>
			<path style="fill:url(#SVGID_00000148653290434303850760000016491469385644180114_);" d="M1120.063,1961.306
				c0,0,202.078-31.908,361.614,10.635l-10.636,164.853c0,0-42.542,228.667-74.449,329.707c0,0-122.311,21.271-180.807-10.635
				c0,0-47.861-287.164-74.449-329.707C1141.335,2126.159,1114.746,2014.484,1120.063,1961.306z"/>
			
				<linearGradient id="SVGID_00000122682714810110517810000015759621919692958107_" gradientUnits="userSpaceOnUse" x1="1240.3145" y1="1889.6464" x2="1335.9387" y2="1889.6464">
				<stop  offset="0" style="stop-color:#FEBBBA"/>
				<stop  offset="1" style="stop-color:#FF928E"/>
			</linearGradient>
			<path style="fill:url(#SVGID_00000122682714810110517810000015759621919692958107_);" d="M1260.445,1815.997l-20.13,136.137
				c0,0,56.242,25.837,95.624-1.108l-8.479-96.077L1260.445,1815.997z"/>
			<g>
				
					<linearGradient id="SVGID_00000092450800689481864520000006085254300661286281_" gradientUnits="userSpaceOnUse" x1="11172.8799" y1="-1363.9077" x2="11340.3965" y2="-1404.679" gradientTransform="matrix(0.8757 -0.4828 0.4828 0.8757 133.6748 1095.1436)">
					<stop  offset="0" style="stop-color:#FEBBBA"/>
					<stop  offset="1" style="stop-color:#FF928E"/>
				</linearGradient>
				<path style="fill:url(#SVGID_00000092450800689481864520000006085254300661286281_);" d="M1347.12,1727.35
					c0.634,1.15,12.768,69.799,20.236,112.292c3.086,17.558-9.819,33.867-27.615,34.921l-16.295,0.965
					c-29.941,1.772-56.308-19.545-60.846-49.193l-11.782-76.975C1250.817,1749.359,1331.728,1699.43,1347.12,1727.35z"/>
				
					<linearGradient id="SVGID_00000116913839197960213150000016271021130419722914_" gradientUnits="userSpaceOnUse" x1="618.764" y1="1126.5409" x2="791.3066" y2="1126.5409" gradientTransform="matrix(0.8757 -0.4828 0.4828 0.8757 133.6748 1095.1436)">
					<stop  offset="0" style="stop-color:#09005D"/>
					<stop  offset="1" style="stop-color:#1A0F91"/>
				</linearGradient>
				<path style="fill:url(#SVGID_00000116913839197960213150000016271021130419722914_);" d="M1233.249,1749.549
					c-6.248-7.77-11.696-20.332,1.609-33.542c13.47-13.375,28.751-10.041,38.445-5.556c4.29,1.985,9.577,1.106,12.632-2.504
					c1.358-1.603,3.372-2.695,6.36-2.359c5.635,0.632,10.665-3.089,11.334-8.719c1.147-9.653,6.289-21.02,23.358-24.318
					c31.305-6.051,46.922,25.278,46.365,47.299c-0.558,22.019-34.872,26.651-54.341,22.995c-14.3-2.685-26.665,9.881-32.221,16.742
					c-2.017,2.49-2.77,5.753-2.044,8.873l4.948,21.272c-3.428,6.613-6.792,13.367-11.607,19.009
					c-3.467,4.064-7.268,6.306-11.299,7.255c-5.837-10.865-22.162-12.707-29.748-12.951c-2.902-0.092-5.614-1.372-7.522-3.561
					c-5.723-6.565-14.682-21.209,2.466-35.591C1236.248,1760.32,1236.735,1753.886,1233.249,1749.549z"/>
				
					<linearGradient id="SVGID_00000051385301961077811360000003344319722902393512_" gradientUnits="userSpaceOnUse" x1="11166.9932" y1="-1388.178" x2="11334.5117" y2="-1428.9495" gradientTransform="matrix(0.8757 -0.4828 0.4828 0.8757 133.6748 1095.1436)">
					<stop  offset="0" style="stop-color:#FEBBBA"/>
					<stop  offset="1" style="stop-color:#FF928E"/>
				</linearGradient>
				<path style="fill:url(#SVGID_00000051385301961077811360000003344319722902393512_);" d="M1272.433,1838.772
					c0,0-0.675-38.411-16.221-42.02c-15.546-3.608-32.319,7.633-19.023,30.63
					C1253.729,1855.988,1272.433,1838.772,1272.433,1838.772z"/>
			</g>
			
				<linearGradient id="SVGID_00000008856356044890672050000005605346166442472330_" gradientUnits="userSpaceOnUse" x1="1345.2831" y1="2100.2295" x2="832.447" y2="2350.7751">
				<stop  offset="0" style="stop-color:#09005D"/>
				<stop  offset="1" style="stop-color:#1A0F91"/>
			</linearGradient>
			<path style="fill:url(#SVGID_00000008856356044890672050000005605346166442472330_);" d="M1120.063,1961.306
				c0,0-313.753,340.342,55.838,470.629v-26.588c0,0-138.264-116.993-31.907-276.528
				C1143.994,2128.818,1130.699,1977.26,1120.063,1961.306z"/>
			
				<linearGradient id="SVGID_00000111186037466312725100000006859046259831030942_" gradientUnits="userSpaceOnUse" x1="1263.5869" y1="2377.6072" x2="1093.4155" y2="2522.9617">
				<stop  offset="0" style="stop-color:#FEBBBA"/>
				<stop  offset="1" style="stop-color:#FF928E"/>
			</linearGradient>
			<path style="fill:url(#SVGID_00000111186037466312725100000006859046259831030942_);" d="M1178.56,2408.005
				c0,0,47.861-31.907,69.132-21.271c21.272,10.635,21.272,26.588,21.272,26.588s-10.636,21.272-26.59,15.954
				c-15.953-5.317-53.178,5.318-69.132,0C1173.242,2429.276,1167.924,2408.005,1178.56,2408.005z"/>
			<g>
				
					<linearGradient id="SVGID_00000156583249020472942420000010842001863906010547_" gradientUnits="userSpaceOnUse" x1="1370.5819" y1="2152.0129" x2="857.7449" y2="2402.5593">
					<stop  offset="0" style="stop-color:#09005D"/>
					<stop  offset="1" style="stop-color:#1A0F91"/>
				</linearGradient>
				<path style="fill:url(#SVGID_00000156583249020472942420000010842001863906010547_);" d="M1726.345,2081.519
					c-101.298,15.2-158.206-53.96-207.404-92.732c-64.955-51.189-124.617-21.043-124.617-21.043l63.916,149.191
					c103.446,97.535,214.866,58.89,281.733,27.282C1741,2118.683,1734.177,2097.313,1726.345,2081.519z"/>
				
					<linearGradient id="SVGID_00000132768812192784333060000010149536762649566137_" gradientUnits="userSpaceOnUse" x1="1641.2317" y1="2138.5327" x2="2005.5012" y2="2013.7366">
					<stop  offset="0" style="stop-color:#FEBBBA"/>
					<stop  offset="1" style="stop-color:#FF928E"/>
				</linearGradient>
				<path style="fill:url(#SVGID_00000132768812192784333060000010149536762649566137_);" d="M1868.718,2021.085l-33.593,18.077
					c-40.287,24.529-76.338,37.49-108.781,42.357c7.832,15.793,14.656,37.163,13.627,62.698
					c42.565-20.119,69.252-44.268,69.252-44.268C1885.322,2054.572,1868.718,2021.085,1868.718,2021.085z"/>
			</g>
			
				<linearGradient id="SVGID_00000115480176408157428030000009994423340567712658_" gradientUnits="userSpaceOnUse" x1="1640.7363" y1="2137.0859" x2="2005.0051" y2="2012.29">
				<stop  offset="0" style="stop-color:#FEBBBA"/>
				<stop  offset="1" style="stop-color:#FF928E"/>
			</linearGradient>
			<path style="fill:url(#SVGID_00000115480176408157428030000009994423340567712658_);" d="M1967.681,2068.423
				c-2.169-7.209-7.499-13.042-14.484-15.851l-68.175-27.416c0,0-1.029-8.744,14.404-14.686
				c15.435-5.941,11.826-23.227,11.826-23.227s-21.085,9.618-51.955,24.874c-17.653,8.724-27.558,24.129-32.811,35.724l17.55,23.08
				c42.019,12.623,84.536,15.036,127.416,10.03L1967.681,2068.423z"/>
		</g>
	</g>
</g>
</svg>
